<?xml version="1.0" encoding="UTF-8" standalone="no"?>
<!-- Created with Inkscape (http://www.inkscape.org/) -->

<svg
   width="1080"
   height="1080"
   viewBox="0 0 1080 1080"
   version="1.1"
   id="svg1"
   inkscape:version="1.4.3 (0d15f75042, 2025-12-25)"
   sodipodi:docname="logo.svg"
   inkscape:export-filename="logo-simple.png"
   inkscape:export-xdpi="96"
   inkscape:export-ydpi="96"
   xml:space="preserve"
   xmlns:inkscape="http://www.inkscape.org/namespaces/inkscape"
   xmlns:sodipodi="http://sodipodi.sourceforge.net/DTD/sodipodi-0.dtd"
   xmlns:xlink="http://www.w3.org/1999/xlink"
   xmlns="http://www.w3.org/2000/svg"
   xmlns:svg="http://www.w3.org/2000/svg"><sodipodi:namedview
     id="namedview1"
     pagecolor="#ffffff"
     bordercolor="#000000"
     borderopacity="0.25"
     inkscape:showpageshadow="2"
     inkscape:pageopacity="0.0"
     inkscape:pagecheckerboard="0"
     inkscape:deskcolor="#d1d1d1"
     inkscape:document-units="px"
     inkscape:zoom="0.62117209"
     inkscape:cx="1642.862"
     inkscape:cy="250.3332"
     inkscape:window-width="2538"
     inkscape:window-height="1548"
     inkscape:window-x="0"
     inkscape:window-y="0"
     inkscape:window-maximized="1"
     inkscape:current-layer="layer1"><inkscape:page
       x="0"
       y="0"
       width="1080"
       height="1080"
       id="page4"
       margin="0"
       bleed="0" /><inkscape:page
       x="1090"
       y="0"
       width="1024"
       height="500"
       id="page5"
       margin="0"
       bleed="0"
       inkscape:export-filename="gplay-feature-preview.png"
       inkscape:export-xdpi="96"
       inkscape:export-ydpi="96" /><inkscape:page
       x="2124"
       y="0"
       width="1280"
       height="640"
       id="page1"
       margin="0"
       bleed="0"
       inkscape:export-filename="github-banner.png"
       inkscape:export-xdpi="96"
       inkscape:export-ydpi="96" /></sodipodi:namedview><defs
     id="defs1"><linearGradient
       id="linearGradient22"
       inkscape:collect="always"><stop
         style="stop-color:#d2a48b;stop-opacity:1;"
         offset="0"
         id="stop22" /><stop
         style="stop-color:#ffe6d5;stop-opacity:1"
         offset="1"
         id="stop23" /></linearGradient><rect
       x="1509.0355"
       y="156.70754"
       width="450.13111"
       height="70.292681"
       id="rect10" /><rect
       x="1509.0355"
       y="156.70754"
       width="410.84599"
       height="145.80175"
       id="rect11" /><rect
       x="1509.0355"
       y="156.70754"
       width="450.13111"
       height="70.292681"
       id="rect19" /><rect
       x="1509.0355"
       y="156.70754"
       width="410.84599"
       height="145.80175"
       id="rect20" /><linearGradient
       inkscape:collect="always"
       xlink:href="#linearGradient22"
       id="linearGradient23"
       x1="1602"
       y1="500"
       x2="1602"
       y2="0"
       gradientUnits="userSpaceOnUse" /></defs><g
     inkscape:label="Layer 1"
     inkscape:groupmode="layer"
     id="layer1"><rect
       style="display:inline;fill:#ffffff;stroke-width:2.94047"
       id="rect21"
       width="1280"
       height="640"
       x="2124"
       y="0" /><rect
       style="display:inline;fill:#ffe6d5;stroke-width:2.94047"
       id="rect4"
       width="1080"
       height="1080"
       x="0"
       y="0" /><rect
       style="display:none;fill:#1a1a1a;stroke-width:2.65156"
       id="rect1"
       width="110.24311"
       height="707.50171"
       x="511.42914"
       y="111.92783" /><circle
       style="display:none;fill:#1a1a1a;stroke-width:3.03339"
       id="path1"
       cx="437.05322"
       cy="819.42957"
       r="184.61902" /><rect
       style="display:none;fill:#1a1a1a;stroke-width:2.38028"
       id="rect2"
       width="414.16916"
       height="110.24303"
       x="359.46613"
       y="222.17087" /><rect
       style="display:none;fill:#d40000;stroke-width:2.38028"
       id="rect6"
       width="414.16916"
       height="110.24303"
       x="98.160271"
       y="-1371.712"
       transform="rotate(90)" /><rect
       style="display:none;fill:#2aff2a;stroke-width:2.94047"
       id="rect7"
       width="110.24303"
       height="110.24303"
       x="1112.6918"
       y="-124.09386" /><rect
       style="display:none;fill:#1a1a1a;stroke-width:1.79144"
       id="rect8"
       width="234.60081"
       height="110.24303"
       x="641.83081"
       y="-94.55806"
       transform="matrix(0.88271041,0.46991736,0,1,0,0)" /><rect
       style="display:none;fill:#1a1a1a;stroke-width:1.68311"
       id="rect9"
       width="207.08458"
       height="110.24303"
       x="359.46613"
       y="222.17087" /><path
       id="rect3"
       style="display:inline;fill:#552200;stroke-width:2.65156"
       d="M 511.42969,111.92773 V 222.16992 H 359.4668 V 332.41406 H 511.42969 V 650.45508 A 184.61902,184.61902 0 0 0 437.05273,634.81055 184.61902,184.61902 0 0 0 252.43359,819.42969 184.61902,184.61902 0 0 0 437.05273,1004.0488 184.61902,184.61902 0 0 0 621.67188,819.42969 V 332.41406 H 773.63477 V 222.16992 H 621.67188 V 111.92773 Z" /><g
       id="g12"
       transform="matrix(0.25148855,0,0,0.25148855,2016.61,198.24233)"><rect
         style="fill:#ffe6d5;stroke-width:2.94047"
         id="rect12"
         width="1080"
         height="1080"
         x="1088.9658"
         y="-55.85202"
         ry="176.18666" /><path
         id="path12"
         style="fill:#552200;stroke-width:2.65156"
         d="M 1600.3955,56.075709 V 166.3179 h -151.9629 v 110.24414 h 151.9629 v 318.04102 a 184.61902,184.61902 0 0 0 -74.3769,-15.64453 184.61902,184.61902 0 0 0 -184.6192,184.61914 184.61902,184.61902 0 0 0 184.6192,184.61911 184.61902,184.61902 0 0 0 184.6191,-184.61911 V 276.56204 h 151.9629 V 166.3179 H 1710.6377 V 56.075709 Z" /></g><g
       id="g19"
       transform="matrix(1.2269295,0,0,1.2269295,756.7016,9.8457396)"><text
         xml:space="preserve"
         id="text13"
         style="font-size:64px;line-height:1.1;font-family:Mulish;-inkscape-font-specification:'Mulish, @wght=900';text-align:start;letter-spacing:0px;writing-mode:lr-tb;direction:ltr;white-space:pre;shape-inside:url(#rect19);fill:#552200;stroke-width:2.94047"
         x="-225.06555"
         y="0"
         transform="matrix(1.2639975,0,0,1.2639975,-378.83412,-62.471831)"><tspan
           x="1509.0352"
           y="211.15803"
           id="tspan2"><tspan
             style="font-weight:800;-inkscape-font-specification:'Mulish Ultra-Bold'"
             id="tspan1">Hymnal</tspan></tspan></text><text
         xml:space="preserve"
         id="text19"
         style="font-size:29.5359px;line-height:1.3;font-family:Mulish;-inkscape-font-specification:'Mulish, @wght=900';text-align:start;letter-spacing:0px;writing-mode:lr-tb;direction:ltr;white-space:pre;shape-inside:url(#rect20);fill:#552200;stroke-width:2.94047"
         x="-225.06555"
         y="0"
         transform="matrix(1.2639975,0,0,1.2639975,-378.83412,29.747007)"><tspan
           x="1509.0352"
           y="184.78967"
           id="tspan4"><tspan
             style="font-weight:300;-inkscape-font-specification:'Mulish Light'"
             id="tspan3">A Seventh-Day Adventist </tspan></tspan><tspan
           x="1509.0352"
           y="223.18634"
           id="tspan6"><tspan
             style="font-weight:300;-inkscape-font-specification:'Mulish Light'"
             id="tspan5">Hymnal in various languages </tspan></tspan><tspan
           x="1509.0352"
           y="261.58301"
           id="tspan8"><tspan
             style="font-weight:300;-inkscape-font-specification:'Mulish Light'"
             id="tspan7">with sheet music</tspan></tspan></text></g><rect
       style="fill:url(#linearGradient23);stroke-width:2.94047;fill-opacity:1"
       id="rect22"
       width="1024"
       height="500"
       x="1090"
       y="0" /><path
       id="path12-6"
       style="fill:#552200;stroke-width:0.666837"
       d="m 1601.5965,147.4372 v 27.72465 h -38.2169 v 27.72514 h 38.2169 v 79.98367 a 46.42957,46.42957 0 0 0 -18.7049,-3.93442 46.42957,46.42957 0 0 0 -46.4296,46.4296 46.42957,46.42957 0 0 0 46.4296,46.42959 46.42957,46.42957 0 0 0 46.4296,-46.42959 V 202.88699 h 38.2169 v -27.72514 h -38.2169 V 147.4372 Z" /></g></svg>
